PathFileType	4	(X/Y/Z)	Patient4_TMGait_0pt5_01_left_07.trc.trc
DataRate	CameraRate	NumFrames	NumMarkers	Units	OrigDataRate	OrigDataStartFrame	OrigNumFrames
73.684210526316	73.684210526316	4	33	mm	73.684210526316	36	       141
Frame#	Time	L.ASIS			Sacral			L.Shoulder			Chest			R.Shoulder			Neck			R.ASIS			R.Thigh.Superior			R.Thigh.Lateral			R.Thigh.Inferior			R.Patella			L.Thigh.Superior			L.Thigh.Lateral			L.Thigh.Inferior			L.Patella			L.Shank.Superior			L.Shank.Lateral			L.Shank.Inferior			R.Shank.Superior			R.Shank.Lateral			R.Shank.Inferior			R.Heel			R.Midfoot.Superior			R.Midfoot.Lateral			R.Toe			L.Heel			L.Midfoot.Lateral			L.Midfoot.Superior			L.Toe			L.Elbow			L.Wrist			R.Elbow			R.Wrist			
		X1	Y1	Z1	X2	Y2	Z2	X3	Y3	Z3	X4	Y4	Z4	X5	Y5	Z5	X6	Y6	Z6	X7	Y7	Z7	X8	Y8	Z8	X9	Y9	Z9	X10	Y10	Z10	X11	Y11	Z11	X12	Y12	Z12	X13	Y13	Z13	X14	Y14	Z14	X15	Y15	Z15	X16	Y16	Z16	X17	Y17	Z17	X18	Y18	Z18	X19	Y19	Z19	X20	Y20	Z20	X21	Y21	Z21	X22	Y22	Z22	X23	Y23	Z23	X24	Y24	Z24	X25	Y25	Z25	X26	Y26	Z26	X27	Y27	Z27	X28	Y28	Z28	X29	Y29	Z29	X30	Y30	Z30	X31	Y31	Z31	X32	Y32	Z32	X33	Y33	Z33	

36	9.885000000000	707.161555444956	959.735466543102	321.636185927060	494.989156822630	1005.712161548906	481.602506558707	660.169225848823	1437.827902985169	313.882491359949	769.793380299542	1359.342203040969	466.675303951555	694.654408313787	1428.181051620658	647.187395006986	669.325792980025	1492.602928324649	465.775270259341	721.911687070765	931.950773983070	595.303644927326	733.097908163188	721.358461362578	572.953961289972	634.941473944435	624.402400802830	633.664850436143	707.533678403825	556.007042548770	561.596474425035	686.449894799491	452.014799440856	576.615673514232	775.173161647094	765.033172637577	358.926637811384	707.950803339481	637.783201234076	295.085939881079	798.055535493027	571.503224682765	364.509072320480	806.727129747854	500.724475694097	374.622849179005	789.180895340811	427.268424347842	364.862126278342	717.676176378664	304.182218158526	307.848179429624	775.595908785430	198.820486063944	382.301205344263	611.916914236514	385.796123979245	579.677145986736	495.378223590199	337.165956550839	640.199203813646	484.741593208289	230.389783975711	584.817884604614	283.103215569862	146.378108778643	559.481420858373	459.744526349505	112.676334957764	591.550768735901	352.392999115305	91.738813199606	625.864923542445	539.931260684541	33.220281785510	604.851642284805	658.256873263710	37.529675046423	413.438578225129	738.784172849524	35.602472603664	338.958027322116	819.156378413046	97.124520179903	371.616759672488	949.561893700761	44.964475960289	354.862739547287	565.354760617983	1104.588464123321	182.121878206570	641.239661498880	852.287586926016	185.336459729113	735.913855358740	1090.825818220350	776.649242143247	936.573031116369	926.218493141740	786.173328065652	
37	9.898571428571	709.539004129385	960.716302710000	319.262961555388	496.655520795547	1006.004572898693	478.390070840241	662.632691131596	1438.610041519111	310.950534378278	771.107048225246	1360.382504021166	464.697107200563	694.326839633158	1429.239428985566	644.514783450276	670.476833211897	1493.467812201050	462.791225076523	723.390803341889	932.988539403345	592.874067850783	739.862964061899	723.238678115385	570.901905699788	644.640500371232	624.234973105185	631.885302011355	719.318420752831	557.006293181064	560.030816864330	699.513635202975	451.427026460435	576.204409065302	776.777639982750	764.539805974934	356.504381465488	708.250004824626	637.716925407007	293.590357274895	797.497028256928	570.852246940869	363.370853879207	805.564485252587	500.121574191543	374.185908356152	787.277423888759	426.597733778517	364.544189017139	714.921580476743	304.209126410465	307.212097309045	770.673347277304	198.358950742752	382.363179614402	622.735144371203	386.261818935109	579.253778658178	504.383963497937	341.909493531180	639.564884153651	490.386204693272	235.148777926443	585.138303178173	286.750990935254	161.508084786683	559.578939662238	460.041951246526	115.772020591680	592.193869900005	351.712306215435	101.964984697977	625.863133430142	533.582931390395	31.905587815357	605.215896769971	651.494926374958	37.580459585193	413.307784131023	732.046831907804	35.642666535022	338.872099596610	812.552927481637	97.037963488214	371.674296349117	942.943989581726	44.403986033565	354.777700983946	571.493395527168	1105.480680281657	176.501700663814	653.119925525045	855.044307180290	180.469132044809	726.739471629195	1090.753182627691	774.488552803474	917.747742267142	915.086120759452	790.518909044583	
38	9.912142857143	711.699676410093	961.490542616905	316.975433960142	498.196123348673	1006.106749406356	475.379256273893	664.934110435859	1439.247332971831	308.185678241653	772.279856620883	1361.267697983517	462.857108416932	693.848873564409	1430.090911970630	641.999475186407	671.497824950788	1494.169739147706	459.979121584073	724.777256204555	933.839053565519	590.487280135827	746.810415477364	725.240504339905	568.753523260987	654.811126201652	624.155308945730	630.084250558192	731.435903293010	558.271684265464	558.178034928953	713.072977115134	451.199744630861	575.328659446049	778.127207961873	763.887344352134	354.339494769848	708.489513166147	637.563212812197	292.133366770456	796.805613012739	570.144900192387	362.378972244974	804.295174562673	499.430900530326	373.729376020214	785.242764582780	425.825106684887	364.189541928613	711.979763237869	304.126060745639	306.651219951176	765.708374765381	197.845548691945	382.402708677736	634.246096123854	386.984784742806	578.529702694477	514.332241710575	346.854100023202	638.784776555374	496.986631746280	240.238042665369	585.255835757542	292.032181221385	177.309726350525	559.458777763350	461.095712670520	119.368177883947	592.720184880739	352.185468440003	113.039549767426	625.738042336505	527.512024397723	30.387255736966	605.674304727605	644.694123223409	37.609516060612	413.191278750573	725.287571221557	35.644953388595	338.811730900175	805.933741279971	96.909719747936	371.766585932601	936.307756341009	43.786472109276	354.779663482746	577.308356204468	1106.392790561385	170.908415212114	664.994095208794	858.083345107531	175.769790320301	717.340712190485	1090.655426850685	772.249344501628	897.966673002385	904.649169396848	794.445627533005	
39	9.925714285714	713.627527789443	962.072912035373	314.776398397316	499.584250834735	1006.054376803273	472.574887184956	667.062802467338	1439.745661704920	305.614621296736	773.320362922385	1361.986911234111	461.162487239156	693.278772430299	1430.749132512802	639.659266850876	672.422007301670	1494.714608644809	457.359856824664	726.033967430111	934.511720767221	588.157837763597	753.789210660580	727.401963792657	566.441572501016	665.311429515353	624.241057928724	628.222352567446	743.682838680146	559.869875213474	555.973235568556	726.962211670807	451.394767913121	573.938535775532	779.234521698470	763.138350581295	352.434941017303	708.667334809995	637.347687267966	290.727379973419	795.995100451381	569.401816184926	361.523241320469	802.919521749762	498.670768960841	373.266114547703	783.082968607195	424.970805902338	363.810652492655	708.865881135217	303.960093380834	306.146155438600	760.706875603339	197.296783493505	382.417505765654	646.287834376762	388.016573489137	577.442581233046	525.070691500847	351.965427845434	637.799397910465	504.475710156775	245.603335928080	585.103858182503	298.896952480407	193.401843543442	559.068541394755	463.016061766256	123.470450623178	593.073439888153	353.926480736871	124.723508157103	625.441145100325	521.974880847436	28.777597007868	606.161793613981	637.872127625491	37.622394629836	413.082579658198	718.516163426403	35.620490944577	338.762967858269	799.299388988997	96.755607351339	371.874139607208	929.653612375022	43.161366239010	354.836427875028	582.810314708240	1107.309092361426	165.397436894136	676.800379640079	861.391985529962	171.259047079095	707.827446504163	1090.551150691843	769.928072689855	877.399795028521	894.931407579491	797.806801870311	
